<svg width="507" height="529" viewBox="0 0 507 529" fill="none" xmlns="http://www.w3.org/2000/svg">
<path d="M476.874 439.685C467.03 411.794 444.827 390.029 416.718 380.732L378.874 368.154C390.796 361.154 399.983 350.216 404.686 337.31C418.139 300.013 417.811 259.216 403.701 222.14C442.092 207.702 463.201 188.015 463.201 166.359C463.201 139.125 430.279 115.39 372.748 101.062L355.795 33.25C350.873 13.672 333.373 0 313.248 0H192.938C172.813 0 155.313 13.672 150.5 33.141L133.547 100.953C76.0164 115.281 43.0944 139.015 43.0944 166.25C43.0944 188.016 64.2034 207.703 102.594 222.031C88.4854 259.109 88.0474 299.906 101.61 337.201C106.313 350.217 115.501 361.154 127.422 368.045L89.578 380.623C61.469 389.92 39.266 411.685 29.422 439.576L0 521.935L16.516 527.841L45.938 445.482C52.3911 427.107 65.516 411.794 82.688 402.607L143.5 486.279C136.281 494.264 130.375 503.341 126.219 513.185L122.719 521.388L138.797 528.279L142.297 520.076C154.656 491.092 183.203 472.279 214.703 472.388H291.812C323.312 472.388 351.859 491.2 364.218 520.076L367.718 528.279L383.796 521.388L380.296 513.185C376.03 503.341 370.234 494.154 363.015 486.279L423.827 402.607C440.999 411.795 454.124 427.107 460.577 445.482L489.999 527.841L506.515 521.935L476.874 439.685ZM60.5938 166.245C60.5938 149.62 86.9528 132.12 128.735 120.307L122.172 146.666C121.188 150.604 123.047 154.76 126.766 156.619L126.985 156.728C166.141 176.306 209.344 186.478 253.205 186.478C297.066 186.478 340.267 176.197 379.425 156.728L379.644 156.619C383.253 154.76 385.222 150.604 384.237 146.666L377.675 120.307C419.456 132.119 445.816 149.619 445.816 166.245C445.816 195.229 366.738 227.495 253.316 227.495C139.894 227.495 60.5959 195.229 60.5959 166.245H60.5938ZM293.234 454.995H291.703H214.594H213.062L140.328 382.261L158.266 376.245C172.704 376.464 186.594 381.495 197.86 390.464L201.251 393.199C215.907 404.902 234.063 411.246 252.767 411.246H253.533C272.236 411.246 290.392 404.902 305.049 393.199L308.439 390.464C319.705 381.496 333.595 376.464 348.033 376.245L365.971 382.261L293.234 454.995ZM356.89 328.445C354.702 334.57 351.421 340.257 347.374 345.398L333.702 334.46C336.546 330.851 338.843 326.913 340.374 322.538C348.249 300.882 350.874 277.694 348.14 254.835L365.531 252.757C368.703 278.241 365.749 304.273 356.89 328.445L356.89 328.445Z" fill="#373E4D"/>
<path d="M288.094 489.995H218.094C213.281 489.995 209.344 493.933 209.344 498.745V524.995H296.844V498.745C296.844 493.933 292.906 489.995 288.094 489.995Z" fill="#373E4D"/>
</svg>
