<svg width="687" height="717" viewBox="0 0 687 717" fill="none" xmlns="http://www.w3.org/2000/svg">
<path d="M646.797 596.357C633.445 558.527 603.331 529.007 565.206 516.397L513.877 499.337C530.047 489.843 542.507 475.007 548.886 457.503C567.133 406.916 566.688 351.582 547.551 301.294C599.622 281.712 628.253 255.01 628.253 225.637C628.253 188.699 583.6 156.507 505.569 137.073L482.575 45.0979C475.899 18.5437 452.163 0 424.867 0H261.688C234.391 0 210.656 18.5437 204.128 44.95L181.134 136.925C103.103 156.359 58.4501 188.55 58.4501 225.489C58.4501 255.011 87.0808 281.713 139.152 301.147C120.015 351.437 119.421 406.771 137.816 457.355C144.195 475.009 156.657 489.843 172.826 499.189L121.497 516.249C83.3721 528.859 53.2575 558.379 39.9059 596.209L0 707.915L22.4011 715.925L62.3069 604.22C71.0595 579.297 88.8611 558.528 112.152 546.067L194.633 659.554C184.842 670.383 176.831 682.695 171.194 696.047L166.447 707.173L188.254 716.519L193.001 705.393C209.764 666.081 248.483 640.564 291.207 640.712H395.792C438.517 640.712 477.236 666.228 493.999 705.393L498.746 716.519L520.553 707.173L515.806 696.047C510.02 682.696 502.158 670.235 492.367 659.554L574.848 546.067C598.139 558.528 615.941 579.297 624.693 604.22L664.599 715.925L687 707.915L646.797 596.357ZM82.185 225.483C82.185 202.934 117.936 179.198 174.606 163.176L165.706 198.927C164.37 204.268 166.892 209.905 171.936 212.427L172.233 212.575C225.341 239.129 283.939 252.926 343.429 252.926C402.918 252.926 461.513 238.981 514.624 212.575L514.921 212.427C519.816 209.905 522.487 204.268 521.151 198.927L512.251 163.176C568.919 179.197 604.672 202.932 604.672 225.483C604.672 264.794 497.416 308.558 343.579 308.558C189.742 308.558 82.1878 264.794 82.1878 225.483H82.185ZM397.721 617.122H395.644H291.059H288.982L190.331 518.471L214.661 510.312C234.244 510.609 253.083 517.433 268.363 529.597L272.962 533.306C292.84 549.179 317.466 557.784 342.835 557.784H343.873C369.24 557.784 393.866 549.18 413.746 533.306L418.344 529.597C433.625 517.433 452.464 510.609 472.047 510.312L496.377 518.471L397.721 617.122ZM484.059 445.479C481.092 453.786 476.642 461.5 471.153 468.473L452.609 453.637C456.466 448.742 459.582 443.401 461.659 437.467C472.34 408.094 475.9 376.644 472.191 345.64L495.779 342.821C500.081 377.386 496.076 412.694 484.06 445.479L484.059 445.479Z" fill="#8364EE"/>
<path d="M390.749 664.594H295.806C289.279 664.594 283.938 669.934 283.938 676.462V712.065H402.617V676.462C402.617 669.934 397.277 664.594 390.749 664.594Z" fill="#8364EE"/>
</svg>
