<svg width="534" height="522" viewBox="0 0 534 522" fill="none" xmlns="http://www.w3.org/2000/svg">
<path d="M501.64 118.76C496.601 109.241 486.519 106.44 477.562 108.682C404.761 0.602058 255.802 -32.4379 141.002 35.8771C30.1221 101.959 -49.3979 283.957 37.4021 397.077C124.203 509.637 284.922 563.397 409.802 483.878C528.522 408.839 567.722 242.518 501.642 118.758L501.64 118.76ZM395.8 426.76C296.679 496.76 181.32 457.561 101.24 378.041C13.8811 290.682 80.5211 133.321 177.4 81.2411C281.56 25.2411 395.8 67.2411 465.24 155.721C465.799 156.28 465.799 156.28 466.361 156.842C496.037 255.397 488.759 361.802 395.799 426.762L395.8 426.76Z" fill="#373E4D"/>
<path d="M183.56 196.04C177.4 183.161 161.72 177.56 148.841 183.161C134.282 189.321 127.56 207.239 135.962 221.239C143.802 234.118 160.04 238.04 172.923 230.759C177.962 227.958 180.763 224.04 183.564 218.997C187.482 211.161 186.924 203.88 183.56 196.04L183.56 196.04Z" fill="#373E4D"/>
<path d="M396.36 191C390.2 184.84 381.801 182.039 372.84 184.281C362.762 187.082 354.36 197.16 354.918 207.801C355.477 217.879 360.52 226.281 370.039 230.199C379.559 234.121 389.641 231.879 396.359 225.16C407.558 216.199 407.558 199.398 396.359 191L396.36 191Z" fill="#373E4D"/>
<path d="M344.28 289C334.202 271.078 307.882 283.399 311.8 302.441C317.96 331.562 308.999 366.281 273.159 366.281C240.12 366.84 222.198 331.562 231.159 303C236.198 286.199 209.319 274.441 202.6 290.68C179.639 344.442 213.241 402.12 273.721 402.12C329.159 402.12 373.961 339.96 344.28 289V289Z" fill="#373E4D"/>
</svg>
