<svg width="406" height="410" viewBox="0 0 406 410" fill="none" xmlns="http://www.w3.org/2000/svg">
<path d="M34.2797 116.531L37.8152 120.055L41.3454 116.525L90.6571 67.2133L140.125 116.531L143.655 120.05L147.185 116.531L169.833 93.9517L173.385 90.4108L169.833 86.8699L94.1818 11.4488L90.6554 7.93318L87.1253 11.4451L11.4741 86.7051L7.91483 90.246L11.4703 93.7907L34.2797 116.531ZM364.823 116.37L368.353 119.889L371.883 116.37L394.531 93.7907L398.082 90.2498L394.531 86.7089L319.041 11.4488L315.511 7.92942L311.981 11.4488L236.329 86.8699L232.778 90.4108L236.329 93.9517L258.977 116.531L262.507 120.05L266.038 116.531L315.511 67.2079L364.823 116.37Z" fill="#6366F1" stroke="#6366F1" stroke-width="10"/>
<rect x="42.5" y="189.5" width="329" height="193" stroke="#6366F1" stroke-width="55"/>
</svg>
