<svg width="1523" height="666" viewBox="0 0 1523 666" fill="none" xmlns="http://www.w3.org/2000/svg">
<path d="M985.874 576.685C976.03 548.794 953.827 527.029 925.718 517.732L887.874 505.154C899.796 498.154 908.983 487.216 913.686 474.31C927.139 437.013 926.811 396.216 912.701 359.14C951.092 344.702 972.201 325.015 972.201 303.359C972.201 276.125 939.279 252.39 881.748 238.062L864.795 170.25C859.873 150.672 842.373 137 822.248 137H701.938C681.813 137 664.313 150.672 659.5 170.141L642.547 237.953C585.016 252.281 552.094 276.015 552.094 303.25C552.094 325.016 573.203 344.703 611.594 359.031C597.485 396.109 597.047 436.906 610.61 474.201C615.313 487.217 624.501 498.154 636.422 505.045L598.578 517.623C570.469 526.92 548.266 548.685 538.422 576.576L509 658.935L525.516 664.841L554.938 582.482C561.391 564.107 574.516 548.794 591.688 539.607L652.5 623.279C645.281 631.264 639.375 640.341 635.219 650.185L631.719 658.388L647.797 665.279L651.297 657.076C663.656 628.092 692.203 609.279 723.703 609.388H800.812C832.312 609.388 860.859 628.2 873.218 657.076L876.718 665.279L892.796 658.388L889.296 650.185C885.03 640.341 879.234 631.154 872.015 623.279L932.827 539.607C949.999 548.795 963.124 564.107 969.577 582.482L998.999 664.841L1015.52 658.935L985.874 576.685ZM569.594 303.245C569.594 286.62 595.953 269.12 637.735 257.307L631.172 283.666C630.188 287.604 632.047 291.76 635.766 293.619L635.985 293.728C675.141 313.306 718.344 323.478 762.205 323.478C806.066 323.478 849.267 313.197 888.425 293.728L888.644 293.619C892.253 291.76 894.222 287.604 893.237 283.666L886.675 257.307C928.456 269.119 954.816 286.619 954.816 303.245C954.816 332.229 875.738 364.495 762.316 364.495C648.894 364.495 569.596 332.229 569.596 303.245H569.594ZM802.234 591.995H800.703H723.594H722.062L649.328 519.261L667.266 513.245C681.704 513.464 695.594 518.495 706.86 527.464L710.251 530.199C724.907 541.902 743.063 548.246 761.767 548.246H762.533C781.236 548.246 799.392 541.902 814.049 530.199L817.439 527.464C828.705 518.496 842.595 513.464 857.033 513.245L874.971 519.261L802.234 591.995ZM865.89 465.445C863.702 471.57 860.421 477.257 856.374 482.398L842.702 471.46C845.546 467.851 847.843 463.913 849.374 459.538C857.249 437.882 859.874 414.694 857.14 391.835L874.531 389.757C877.703 415.241 874.749 441.273 865.89 465.445L865.89 465.445Z" fill="#373E4D"/>
<path d="M797.094 626.995H727.094C722.281 626.995 718.344 630.933 718.344 635.745V661.995H805.844V635.745C805.844 630.933 801.906 626.995 797.094 626.995Z" fill="#373E4D"/>
<path d="M1492.87 439.685C1483.03 411.794 1460.83 390.029 1432.72 380.732L1394.87 368.154C1406.8 361.154 1415.98 350.216 1420.69 337.31C1434.14 300.013 1433.81 259.216 1419.7 222.14C1458.09 207.702 1479.2 188.015 1479.2 166.359C1479.2 139.125 1446.28 115.39 1388.75 101.062L1371.8 33.25C1366.87 13.672 1349.37 0 1329.25 0H1208.94C1188.81 0 1171.31 13.672 1166.5 33.141L1149.55 100.953C1092.02 115.281 1059.09 139.015 1059.09 166.25C1059.09 188.016 1080.2 207.703 1118.59 222.031C1104.49 259.109 1104.05 299.906 1117.61 337.201C1122.31 350.217 1131.5 361.154 1143.42 368.045L1105.58 380.623C1077.47 389.92 1055.27 411.685 1045.42 439.576L1016 521.935L1032.52 527.841L1061.94 445.482C1068.39 427.107 1081.52 411.794 1098.69 402.607L1159.5 486.279C1152.28 494.264 1146.38 503.341 1142.22 513.185L1138.72 521.388L1154.8 528.279L1158.3 520.076C1170.66 491.092 1199.2 472.279 1230.7 472.388H1307.81C1339.31 472.388 1367.86 491.2 1380.22 520.076L1383.72 528.279L1399.8 521.388L1396.3 513.185C1392.03 503.341 1386.23 494.154 1379.01 486.279L1439.83 402.607C1457 411.795 1470.12 427.107 1476.58 445.482L1506 527.841L1522.52 521.935L1492.87 439.685ZM1076.59 166.245C1076.59 149.62 1102.95 132.12 1144.73 120.307L1138.17 146.666C1137.19 150.604 1139.05 154.76 1142.77 156.619L1142.98 156.728C1182.14 176.306 1225.34 186.478 1269.2 186.478C1313.07 186.478 1356.27 176.197 1395.42 156.728L1395.64 156.619C1399.25 154.76 1401.22 150.604 1400.24 146.666L1393.67 120.307C1435.46 132.119 1461.82 149.619 1461.82 166.245C1461.82 195.229 1382.74 227.495 1269.32 227.495C1155.89 227.495 1076.6 195.229 1076.6 166.245H1076.59ZM1309.23 454.995H1307.7H1230.59H1229.06L1156.33 382.261L1174.27 376.245C1188.7 376.464 1202.59 381.495 1213.86 390.464L1217.25 393.199C1231.91 404.902 1250.06 411.246 1268.77 411.246H1269.53C1288.24 411.246 1306.39 404.902 1321.05 393.199L1324.44 390.464C1335.71 381.496 1349.6 376.464 1364.03 376.245L1381.97 382.261L1309.23 454.995ZM1372.89 328.445C1370.7 334.57 1367.42 340.257 1363.37 345.398L1349.7 334.46C1352.55 330.851 1354.84 326.913 1356.37 322.538C1364.25 300.882 1366.87 277.694 1364.14 254.835L1381.53 252.757C1384.7 278.241 1381.75 304.273 1372.89 328.445L1372.89 328.445Z" fill="#373E4D"/>
<path d="M1304.09 489.995H1234.09C1229.28 489.995 1225.34 493.933 1225.34 498.745V524.995H1312.84V498.745C1312.84 493.933 1308.91 489.995 1304.09 489.995Z" fill="#373E4D"/>
<path d="M476.874 451.685C467.03 423.794 444.827 402.029 416.718 392.732L378.874 380.154C390.796 373.154 399.983 362.216 404.686 349.31C418.139 312.013 417.811 271.216 403.701 234.14C442.092 219.702 463.201 200.015 463.201 178.359C463.201 151.125 430.279 127.39 372.748 113.062L355.795 45.25C350.873 25.672 333.373 12 313.248 12H192.938C172.813 12 155.313 25.672 150.5 45.141L133.547 112.953C76.0164 127.281 43.0944 151.015 43.0944 178.25C43.0944 200.016 64.2034 219.703 102.594 234.031C88.4854 271.109 88.0474 311.906 101.61 349.201C106.313 362.217 115.501 373.154 127.422 380.045L89.578 392.623C61.469 401.92 39.266 423.685 29.422 451.576L0 533.935L16.516 539.841L45.938 457.482C52.3911 439.107 65.516 423.794 82.688 414.607L143.5 498.279C136.281 506.264 130.375 515.341 126.219 525.185L122.719 533.388L138.797 540.279L142.297 532.076C154.656 503.092 183.203 484.279 214.703 484.388H291.812C323.312 484.388 351.859 503.2 364.218 532.076L367.718 540.279L383.796 533.388L380.296 525.185C376.03 515.341 370.234 506.154 363.015 498.279L423.827 414.607C440.999 423.795 454.124 439.107 460.577 457.482L489.999 539.841L506.515 533.935L476.874 451.685ZM60.5938 178.245C60.5938 161.62 86.9528 144.12 128.735 132.307L122.172 158.666C121.188 162.604 123.047 166.76 126.766 168.619L126.985 168.728C166.141 188.306 209.344 198.478 253.205 198.478C297.066 198.478 340.267 188.197 379.425 168.728L379.644 168.619C383.253 166.76 385.222 162.604 384.237 158.666L377.675 132.307C419.456 144.119 445.816 161.619 445.816 178.245C445.816 207.229 366.738 239.495 253.316 239.495C139.894 239.495 60.5959 207.229 60.5959 178.245H60.5938ZM293.234 466.995H291.703H214.594H213.062L140.328 394.261L158.266 388.245C172.704 388.464 186.594 393.495 197.86 402.464L201.251 405.199C215.907 416.902 234.063 423.246 252.767 423.246H253.533C272.236 423.246 290.392 416.902 305.049 405.199L308.439 402.464C319.705 393.496 333.595 388.464 348.033 388.245L365.971 394.261L293.234 466.995ZM356.89 340.445C354.702 346.57 351.421 352.257 347.374 357.398L333.702 346.46C336.546 342.851 338.843 338.913 340.374 334.538C348.249 312.882 350.874 289.694 348.14 266.835L365.531 264.757C368.703 290.241 365.749 316.273 356.89 340.445L356.89 340.445Z" fill="#373E4D"/>
<path d="M288.094 501.995H218.094C213.281 501.995 209.344 505.933 209.344 510.745V536.995H296.844V510.745C296.844 505.933 292.906 501.995 288.094 501.995Z" fill="#373E4D"/>
</svg>
